<?xml version="1.0" encoding="UTF-8"?>
<svg xmlns="http://www.w3.org/2000/svg" xmlns:xlink="http://www.w3.org/1999/xlink" width="20px" height="20px" viewBox="0 0 20 20" version="1.1">
<g id="surface1">
<path style=" stroke:none;fill-rule:evenodd;fill:rgb(27.843139%,28.627452%,37.254903%);fill-opacity:1;" d="M 6.25 9.167969 C 5.789062 9.167969 5.417969 9.539062 5.417969 10 C 5.417969 10.460938 5.789062 10.832031 6.25 10.832031 C 6.710938 10.832031 7.082031 10.460938 7.082031 10 C 7.082031 9.539062 6.710938 9.167969 6.25 9.167969 Z M 4.582031 10 C 4.582031 9.078125 5.328125 8.332031 6.25 8.332031 C 7.171875 8.332031 7.917969 9.078125 7.917969 10 C 7.917969 10.921875 7.171875 11.667969 6.25 11.667969 C 5.328125 11.667969 4.582031 10.921875 4.582031 10 Z M 4.582031 10 "/>
<path style=" stroke:none;fill-rule:evenodd;fill:rgb(27.843139%,28.627452%,37.254903%);fill-opacity:1;" d="M 13.75 9.167969 C 13.289062 9.167969 12.917969 9.539062 12.917969 10 C 12.917969 10.460938 13.289062 10.832031 13.75 10.832031 C 14.210938 10.832031 14.582031 10.460938 14.582031 10 C 14.582031 9.539062 14.210938 9.167969 13.75 9.167969 Z M 12.082031 10 C 12.082031 9.078125 12.828125 8.332031 13.75 8.332031 C 14.671875 8.332031 15.417969 9.078125 15.417969 10 C 15.417969 10.921875 14.671875 11.667969 13.75 11.667969 C 12.828125 11.667969 12.082031 10.921875 12.082031 10 Z M 12.082031 10 "/>
<path style=" stroke:none;fill-rule:evenodd;fill:rgb(27.843139%,28.627452%,37.254903%);fill-opacity:1;" d="M 8.332031 12.917969 C 8.5625 12.917969 8.75 13.101562 8.75 13.332031 L 8.75 13.335938 C 8.75 13.335938 8.75 13.339844 8.753906 13.34375 C 8.757812 13.351562 8.765625 13.367188 8.78125 13.386719 C 8.820312 13.433594 8.890625 13.492188 9.007812 13.550781 C 9.242188 13.667969 9.589844 13.75 10 13.75 C 10.410156 13.75 10.757812 13.667969 10.992188 13.550781 C 11.109375 13.492188 11.179688 13.433594 11.21875 13.386719 C 11.234375 13.367188 11.242188 13.351562 11.246094 13.34375 C 11.25 13.339844 11.25 13.335938 11.25 13.335938 L 11.25 13.332031 C 11.25 13.101562 11.4375 12.917969 11.667969 12.917969 C 11.898438 12.917969 12.082031 13.101562 12.082031 13.332031 C 12.082031 13.804688 11.710938 14.121094 11.363281 14.296875 C 10.992188 14.480469 10.511719 14.582031 10 14.582031 C 9.488281 14.582031 9.007812 14.480469 8.636719 14.296875 C 8.289062 14.121094 7.917969 13.804688 7.917969 13.332031 C 7.917969 13.101562 8.101562 12.917969 8.332031 12.917969 Z M 8.332031 12.917969 "/>
<path style=" stroke:none;fill-rule:evenodd;fill:rgb(27.843139%,28.627452%,37.254903%);fill-opacity:1;" d="M 13.332031 4.582031 L 13.332031 6.25 L 6.667969 6.25 L 6.667969 4.582031 C 6.667969 4.351562 6.480469 4.167969 6.25 4.167969 C 6.019531 4.167969 5.832031 4.351562 5.832031 4.582031 L 5.832031 6.25 L 5 6.25 C 3.847656 6.25 2.917969 7.183594 2.917969 8.332031 L 2.917969 14.167969 C 2.917969 15.316406 3.847656 16.25 5 16.25 L 15 16.25 C 16.152344 16.25 17.082031 15.316406 17.082031 14.167969 L 17.082031 8.332031 C 17.082031 7.183594 16.152344 6.25 15 6.25 L 14.167969 6.25 L 14.167969 4.582031 C 14.167969 4.351562 13.980469 4.167969 13.75 4.167969 C 13.519531 4.167969 13.332031 4.351562 13.332031 4.582031 Z M 5 7.082031 C 4.308594 7.082031 3.75 7.644531 3.75 8.332031 L 3.75 14.167969 C 3.75 14.855469 4.308594 15.417969 5 15.417969 L 15 15.417969 C 15.691406 15.417969 16.25 14.855469 16.25 14.167969 L 16.25 8.332031 C 16.25 7.644531 15.691406 7.082031 15 7.082031 Z M 5 7.082031 "/>
</g>
</svg>
